<?xml version="1.0" standalone="no"?>
<!DOCTYPE svg PUBLIC "-//W3C//DTD SVG 1.0//EN" "http://www.w3.org/TR/2001/REC-SVG-20010904/DTD/svg10.dtd">
<svg width="268" height="268" viewBox="0 0 268 268" fill="none" xmlns="http://www.w3.org/2000/svg" xmlns:inkscape ="http://www.inkscape.org/namespaces/inkscape" >
<desc>CopyRight:SVG Design Editor;
configurationStart;Unit=smCentimetres;Dpi=96;Division=4;Grid=True;Zoom=1;CanvasW=268;CanvasH=268;configurationEnd;</desc>
<g isVisble = "True" inkscape:label = "NTA App Icon Default Layer" inkscape:groupmode = "layer" ><path style="fill:#0A414A;stroke:none; stroke-width:1" d="m201.32,42.61c45.95,41.01 47.63,112.09 6.15,156.97c-27.24,29.91 -69.66,43.04 -109.08,34.11c-51.84,-11.17 -90.15,-58.48 -89.9,-111.54c-0.36,-62.94 52.13,-115.25 115.44,-111.6c0.23,0.01 0.41,0.21 0.39,0.44c-0.01,0.22 -0.19,0.39 -0.41,0.39c-12.43,0.11 -24.88,2.17 -36.57,6.43c-41.82,15.02 -70.92,55.04 -71.71,99.55c-1.61,69.93 62.3,122.81 130.71,108.6c51.2,-10.71 87.82,-57.29 85.9,-109.6c-0.7,-27.25 -12.27,-53.88 -31.51,-73.16c-0.16,-0.16 -0.16,-0.43 0,-0.59c0.16,-0.16 0.43,-0.16 0.59,0l0,0l0,0z" transform = "matrix(1.090341,0,0,1.090341,-0.6799507,-0.689538)" vector-effect="non-scaling-stroke" pen = "1.090351,1.09035" />
<path style="fill:#0A414A;stroke:none; stroke-width:1" d="m85.43,151.28l-41.8,-55.4l0,41.01c0,3.4 0.16,5.64 0.48,6.71c0.35,1.08 1.31,2.06 2.88,2.96c1.57,0.9 3.92,1.35 7.06,1.35l0,2l-22.05,0l0,-2c2.82,-0.2 4.97,-0.71 6.45,-1.53c1.48,-0.84 2.35,-1.74 2.61,-2.7c0.29,-0.96 0.44,-3.23 0.44,-6.8l0,-31.34c0,-4.53 -0.22,-7.57 -0.65,-9.11c-0.41,-1.54 -1.08,-2.53 -2,-2.96c-0.9,-0.44 -2.93,-0.65 -6.1,-0.65l0,-2l17.43,0l35,46.24l0,-35.35c0,-2.61 -0.28,-4.45 -0.83,-5.49c-0.52,-1.05 -1.61,-1.87 -3.27,-2.48c-1.66,-0.61 -3.65,-0.92 -5.97,-0.92l0,-2l21.44,0l0,2c-2.5,0.2 -4.47,0.68 -5.93,1.44c-1.42,0.76 -2.34,1.67 -2.75,2.75c-0.38,1.05 -0.57,2.83 -0.57,5.36l0,48.9l-1.87,0z" transform = "matrix(1.090341,0,0,1.090341,-0.6799459,-0.6895351)" vector-effect="non-scaling-stroke" pen = "1.090351,1.090351" />
<path style="fill:#0A414A;stroke:none; stroke-width:1" d="m101.69,105.04l-2,0l0.31,-14.21l57.36,0l0.3,14.21l-1.87,0c-0.67,-3.89 -1.58,-6.7 -2.75,-8.41c-1.16,-1.74 -2.41,-2.8 -3.75,-3.18c-1.34,-0.41 -3.62,-0.61 -6.84,-0.61l-9.5,0l0,41.71c0,4.62 0.1,7.66 0.31,9.11c0.23,1.45 0.83,2.53 1.79,3.23c0.96,0.7 2.76,1.05 5.4,1.05l2.88,0l0,2l-29.46,0l0,-2l3.05,0c2.53,0 4.27,-0.32 5.23,-0.96c0.99,-0.64 1.61,-1.63 1.87,-2.96c0.29,-1.37 0.44,-4.52 0.44,-9.46l0,-41.71l-8.76,0c-3.81,0 -6.36,0.19 -7.67,0.57c-1.31,0.35 -2.54,1.44 -3.71,3.27c-1.13,1.83 -2,4.62 -2.61,8.37z" transform = "matrix(1.090342,0,0,1.090341,-0.6799507,-0.6895275)" vector-effect="non-scaling-stroke" pen = "1.090351,1.090349" />
<path style="fill:#0A414A;stroke:none; stroke-width:1" d="m190.78,128.14l-22.44,0l-1.53,3.75c-2.27,5.43 -3.4,8.98 -3.4,10.63c0,1.77 0.6,3.12 1.79,4.05c1.22,0.9 2.77,1.35 4.66,1.35l0,2l-17.56,0l0,-2c2.62,-0.41 4.56,-1.32 5.84,-2.75c1.28,-1.45 2.82,-4.49 4.62,-9.11c0.14,-0.44 0.84,-2.12 2.09,-5.06l17.17,-41.01l1.7,0l19.74,46.94l2.7,6.19c0.61,1.4 1.42,2.5 2.44,3.31c1.05,0.78 2.6,1.28 4.66,1.48l0,2l-23.23,0l0,-2c2.85,0 4.76,-0.2 5.75,-0.61c1.02,-0.44 1.53,-1.28 1.53,-2.53c0,-0.64 -0.67,-2.54 -2.01,-5.71l-4.53,-10.94zm-0.74,-1.96l-10.46,-25.19l-10.42,25.19l20.88,0z" transform = "matrix(1.090343,0,0,1.090342,-0.6799517,-0.6895342)" vector-effect="non-scaling-stroke" pen = "1.090352,1.09035" />
<path style="fill:#3A7A6F;stroke:none; stroke-width:1" d="m175.98,41.58c1.13,-0.18 2.28,-0.3 3.43,-0.35c0.01,-0.07 0.03,-0.13 0.05,-0.2c-13.11,-7.83 -24.17,4.27 -27.72,9.93c9.51,-0.94 22.76,5.35 27.09,-7.67c-2.76,-0.1 -5.58,0.24 -8.34,0.84c-3.76,0.83 -7.42,2.18 -10.93,3.88c3.32,-2.04 6.87,-3.77 10.62,-5.01c1.88,-0.61 3.81,-1.1 5.79,-1.42l0,0zm-12.92,-32.98c10.24,10.72 8.07,40.17 35.98,35.08c-2.92,-3.22 -5.93,-6.37 -9,-9.45c-2.03,-2.03 -4.1,-4.02 -6.22,-5.95c-2.13,-1.93 -4.31,-3.81 -6.6,-5.55c2.48,1.48 4.87,3.1 7.21,4.79c2.35,1.69 4.64,3.45 6.91,5.25c3.12,2.49 6.18,5.04 9.19,7.66c-3.19,-28.69 -26.85,-31.62 -37.46,-31.84z" transform = "matrix(1.090343,0,0,1.090341,-0.6799564,-0.6895342)" vector-effect="non-scaling-stroke" pen = "1.090351,1.090349" />
</g>
</svg>
