<svg width="556" height="241" viewBox="0 0 556 241" fill="none" xmlns="http://www.w3.org/2000/svg">
<path d="M201.32 42.6096C247.272 83.6233 248.948 154.702 207.474 199.578C180.236 229.488 137.815 242.617 98.3916 233.688C46.5488 222.521 8.24594 175.212 8.4901 122.143C8.13218 59.2015 60.6242 6.89542 123.931 10.5468C124.162 10.5606 124.337 10.7548 124.323 10.9851C124.312 11.2043 124.128 11.3763 123.909 11.3791C111.476 11.4873 99.0297 13.5516 87.3405 17.8133C45.5222 32.8348 16.4198 72.8524 15.6318 117.359C14.017 187.292 77.9319 240.17 146.342 225.961C197.546 215.249 234.159 168.672 232.245 116.358C231.546 89.1114 219.97 62.4811 200.731 43.1951C200.571 43.0314 200.571 42.7678 200.734 42.6069C200.895 42.4459 201.159 42.4459 201.32 42.6069V42.6096Z" fill="#0A414A"/>
<path d="M85.4343 151.279L43.637 95.8839V136.897C43.637 140.296 43.7968 142.534 44.1164 143.609C44.4651 144.684 45.424 145.672 46.993 146.572C48.562 147.473 50.9156 147.923 54.0536 147.923V149.928H32V147.923C34.8184 147.72 36.9686 147.212 38.4505 146.398C39.9323 145.555 40.804 144.655 41.0655 143.696C41.3561 142.737 41.5014 140.471 41.5014 136.897V105.56C41.5014 101.027 41.2834 97.9904 40.8476 96.4505C40.4408 94.9105 39.7725 93.9226 38.8427 93.4867C37.942 93.0509 35.9081 92.833 32.7409 92.833V90.8281H50.1746L85.1728 137.071V101.724C85.1728 99.1091 84.8968 97.2786 84.3447 96.2325C83.8217 95.1865 82.7321 94.3584 81.0759 93.7482C79.4197 93.1381 77.4293 92.833 75.1048 92.833V90.8281H96.5483V92.833C94.0495 93.0364 92.0736 93.5158 90.6208 94.2713C89.1971 95.0267 88.2818 95.942 87.875 97.0171C87.4973 98.0631 87.3084 99.85 87.3084 102.378V151.279H85.4343Z" fill="#0A414A"/>
<path d="M101.691 105.037H99.6864L99.9915 90.8281H157.348L157.653 105.037H155.779C155.111 101.143 154.196 98.3391 153.034 96.6248C151.871 94.8814 150.622 93.8209 149.285 93.4432C147.949 93.0364 145.668 92.833 142.443 92.833H132.941V134.543C132.941 139.163 133.043 142.199 133.246 143.652C133.479 145.105 134.074 146.18 135.033 146.877C135.992 147.575 137.794 147.923 140.438 147.923H143.314V149.928H113.851V147.923H116.902C119.43 147.923 121.173 147.604 122.132 146.965C123.12 146.325 123.745 145.337 124.006 144.001C124.297 142.635 124.442 139.483 124.442 134.543V92.833H115.682C111.875 92.833 109.318 93.0218 108.011 93.3996C106.703 93.7482 105.469 94.8379 104.306 96.6684C103.173 98.4989 102.301 101.288 101.691 105.037Z" fill="#0A414A"/>
<path d="M190.777 128.136H168.332L166.806 131.884C164.54 137.318 163.407 140.863 163.407 142.519C163.407 144.291 164.002 145.643 165.194 146.572C166.414 147.473 167.968 147.923 169.857 147.923V149.928H152.293V147.923C154.908 147.517 156.854 146.601 158.133 145.178C159.411 143.725 160.951 140.689 162.753 136.069C162.898 135.633 163.595 133.947 164.845 131.013L182.017 90H183.717L203.46 136.94L206.163 143.129C206.773 144.524 207.586 145.628 208.603 146.442C209.649 147.226 211.204 147.72 213.267 147.923V149.928H190.037V147.923C192.884 147.923 194.802 147.72 195.79 147.313C196.807 146.877 197.315 146.035 197.315 144.785C197.315 144.146 196.647 142.243 195.31 139.076L190.777 128.136ZM190.037 126.175L179.576 100.983L169.16 126.175H190.037Z" fill="#0A414A"/>
<path d="M175.976 41.5775C177.103 41.3999 178.251 41.2806 179.408 41.2279C179.422 41.1585 179.442 41.0975 179.458 41.0281C166.348 33.201 155.292 45.2982 151.743 50.961C161.252 50.0232 174.508 56.3132 178.834 43.2894C176.073 43.1923 173.257 43.5252 170.499 44.1245C166.742 44.9513 163.074 46.3025 159.565 48.0006C162.889 45.9613 166.432 44.2299 170.188 42.9953C172.067 42.3821 173.998 41.891 175.976 41.5747V41.5775ZM163.052 8.59619C173.296 19.3199 171.118 48.7664 199.03 43.6778C196.106 40.4621 193.101 37.3046 190.027 34.2276C187.996 32.1994 185.929 30.2101 183.803 28.2762C181.675 26.3479 179.497 24.4695 177.203 22.7243C179.68 24.2004 182.069 25.829 184.416 27.5187C186.761 29.2112 189.058 30.9703 191.325 32.771C194.444 35.257 197.501 37.8124 200.514 40.4316C197.324 11.7398 173.662 8.80706 163.052 8.59619Z" fill="#3A7A6F"/>
<path d="M318.448 83.7626L295.062 52.7682V75.7152C295.062 77.6173 295.151 78.8691 295.33 79.4707C295.525 80.0722 296.062 80.6249 296.94 81.1289C297.817 81.6329 299.134 81.8849 300.89 81.8849V83.0066H288.551V81.8849C290.128 81.7711 291.331 81.4866 292.16 81.0313C292.989 80.5599 293.477 80.0559 293.623 79.5194C293.786 78.9829 293.867 77.7149 293.867 75.7152V58.1818C293.867 55.6457 293.745 53.9468 293.501 53.0852C293.274 52.2235 292.9 51.6708 292.379 51.4269C291.875 51.1831 290.737 51.0612 288.965 51.0612V49.9394H298.72L318.302 75.8128V56.0359C318.302 54.5727 318.147 53.5485 317.838 52.9632C317.546 52.378 316.936 51.9147 316.009 51.5733C315.083 51.2319 313.969 51.0612 312.668 51.0612V49.9394H324.666V51.0612C323.268 51.175 322.163 51.4432 321.35 51.8659C320.553 52.2886 320.041 52.8007 319.813 53.4022C319.602 53.9875 319.496 54.9873 319.496 56.4017V83.7626H318.448Z" fill="#0A414A"/>
<path d="M346.857 63.0346V76.1298C346.857 78.3083 346.89 79.6739 346.955 80.2266C347.02 80.7794 347.256 81.1939 347.662 81.4703C348.085 81.7467 348.833 81.8849 349.906 81.8849V83.0066C347.434 83.0391 345.63 83.2992 344.492 83.7869H344.199C343.679 82.8928 343.403 81.3484 343.37 79.1536C342.378 80.6981 341.24 81.8605 339.956 82.6408C338.688 83.4212 337.282 83.8113 335.737 83.8113C334.404 83.8113 333.226 83.5106 332.201 82.9091C331.177 82.2913 330.47 81.5435 330.08 80.6656C329.706 79.7877 329.519 78.4627 329.519 76.6907V69.887C329.519 67.5785 329.478 66.1722 329.397 65.6683C329.316 65.148 329.056 64.766 328.617 64.5221C328.194 64.2783 327.406 64.1563 326.251 64.1563V63.0346H333.031V76.8858C333.031 78.2514 333.112 79.2431 333.274 79.8608C333.437 80.4786 333.852 81.0232 334.518 81.4947C335.185 81.9499 335.957 82.1775 336.835 82.1775C338.087 82.1775 339.281 81.7711 340.419 80.9582C341.557 80.1291 342.33 79.2593 342.736 78.3489C343.159 77.4222 343.37 76.1054 343.37 74.3984V69.887C343.37 67.7086 343.346 66.3836 343.297 65.9121C343.248 65.4407 343.037 65.0342 342.663 64.6928C342.305 64.3352 341.549 64.1563 340.395 64.1563H339.883V63.0346H346.857Z" fill="#0A414A"/>
<path d="M364.903 64.1563H358.88V76.2273C358.88 78.0807 358.961 79.3325 359.123 79.9828C359.286 80.6168 359.627 81.1289 360.148 81.5191C360.684 81.9092 361.253 82.1043 361.855 82.1043C363.025 82.1043 364.041 81.4378 364.903 80.1047L365.683 80.568C365.179 81.641 364.431 82.4539 363.44 83.0066C362.464 83.5431 361.473 83.8113 360.465 83.8113C359.294 83.8113 358.262 83.4699 357.368 82.7871C356.49 82.0881 355.937 81.2752 355.709 80.3485C355.498 79.4219 355.392 77.7962 355.392 75.4714V64.1563H352.49V63.0346C353.824 63.0021 355.018 62.4412 356.075 61.352C357.132 60.2627 357.807 58.7346 358.099 56.7674H358.88V63.0346H364.903V64.1563Z" fill="#0A414A"/>
<path d="M374.096 67.3265C374.649 65.8796 375.543 64.6685 376.779 63.693C378.031 62.7176 379.25 62.2299 380.437 62.2299C381.51 62.2299 382.355 62.5631 382.973 63.2297C383.591 63.8962 383.899 64.579 383.899 65.2781C383.899 65.7496 383.737 66.156 383.412 66.4974C383.103 66.8388 382.721 67.0095 382.266 67.0095C381.453 67.0095 380.835 66.408 380.412 65.2049C380.12 64.3921 379.681 63.9856 379.095 63.9856C378.396 63.9856 377.559 64.4652 376.584 65.4244C375.608 66.3673 374.982 67.3509 374.706 68.3751C374.43 69.3993 374.291 70.8056 374.291 72.5938V76.1542C374.291 78.2839 374.316 79.6251 374.365 80.1778C374.43 80.7306 374.665 81.1533 375.072 81.4459C375.478 81.7385 376.202 81.8849 377.242 81.8849H377.925V83.0066H367.317V81.8849H367.829C368.805 81.8849 369.496 81.7548 369.902 81.4947C370.325 81.2183 370.577 80.8363 370.658 80.3485C370.739 79.8608 370.78 78.4627 370.78 76.1542V70.5211C370.78 68.3751 370.747 67.0339 370.682 66.4974C370.634 65.9446 370.406 65.522 369.999 65.2293C369.593 64.9204 368.87 64.766 367.829 64.766H367.317V63.6686C368.845 63.4898 370.845 63.0102 373.316 62.2299C373.787 63.5142 374.048 65.2131 374.096 67.3265Z" fill="#0A414A"/>
<path d="M387.362 52.0366C387.362 51.3375 387.606 50.736 388.094 50.232C388.598 49.7281 389.199 49.4761 389.898 49.4761C390.597 49.4761 391.191 49.7281 391.678 50.232C392.166 50.736 392.41 51.3375 392.41 52.0366C392.41 52.7519 392.166 53.3616 391.678 53.8655C391.191 54.3695 390.597 54.6215 389.898 54.6215C389.199 54.6215 388.598 54.3695 388.094 53.8655C387.606 53.3616 387.362 52.7519 387.362 52.0366ZM392.069 62.2299V76.1542C392.069 78.2839 392.101 79.6251 392.166 80.1778C392.231 80.7306 392.467 81.1533 392.873 81.4459C393.28 81.7385 394.003 81.8849 395.044 81.8849H395.556V83.0066H384.802V81.8849H385.631C386.785 81.8849 387.533 81.7223 387.874 81.3971C388.232 81.0557 388.435 80.6574 388.484 80.2022C388.549 79.7308 388.581 78.3814 388.581 76.1542V70.1065C388.581 67.7655 388.468 66.3348 388.24 65.8146C388.029 65.2944 387.736 64.9692 387.362 64.8392C387.005 64.7091 386.371 64.6441 385.46 64.6441H384.802V63.5223C387.695 63.2297 389.939 62.7989 391.532 62.2299H392.069Z" fill="#0A414A"/>
<path d="M410.212 64.1563H404.188V76.2273C404.188 78.0807 404.27 79.3325 404.432 79.9828C404.595 80.6168 404.936 81.1289 405.456 81.5191C405.993 81.9092 406.562 82.1043 407.163 82.1043C408.334 82.1043 409.35 81.4378 410.212 80.1047L410.992 80.568C410.488 81.641 409.74 82.4539 408.749 83.0066C407.773 83.5431 406.781 83.8113 405.774 83.8113C404.603 83.8113 403.571 83.4699 402.677 82.7871C401.799 82.0881 401.246 81.2752 401.018 80.3485C400.807 79.4219 400.701 77.7962 400.701 75.4714V64.1563H397.799V63.0346C399.132 63.0021 400.327 62.4412 401.384 61.352C402.441 60.2627 403.115 58.7346 403.408 56.7674H404.188V63.0346H410.212V64.1563Z" fill="#0A414A"/>
<path d="M414.43 52.0366C414.43 51.3375 414.674 50.736 415.162 50.232C415.666 49.7281 416.268 49.4761 416.967 49.4761C417.666 49.4761 418.259 49.7281 418.747 50.232C419.234 50.736 419.478 51.3375 419.478 52.0366C419.478 52.7519 419.234 53.3616 418.747 53.8655C418.259 54.3695 417.666 54.6215 416.967 54.6215C416.268 54.6215 415.666 54.3695 415.162 53.8655C414.674 53.3616 414.43 52.7519 414.43 52.0366ZM419.137 62.2299V76.1542C419.137 78.2839 419.169 79.6251 419.234 80.1778C419.3 80.7306 419.535 81.1533 419.942 81.4459C420.348 81.7385 421.072 81.8849 422.112 81.8849H422.624V83.0066H411.87V81.8849H412.699C413.853 81.8849 414.601 81.7223 414.943 81.3971C415.3 81.0557 415.503 80.6574 415.552 80.2022C415.617 79.7308 415.65 78.3814 415.65 76.1542V70.1065C415.65 67.7655 415.536 66.3348 415.308 65.8146C415.097 65.2944 414.804 64.9692 414.43 64.8392C414.073 64.7091 413.439 64.6441 412.528 64.6441H411.87V63.5223C414.764 63.2297 417.007 62.7989 418.6 62.2299H419.137Z" fill="#0A414A"/>
<path d="M425.428 72.984C425.428 69.9277 426.453 67.3753 428.501 65.3269C430.55 63.2622 433.069 62.2299 436.061 62.2299C439.068 62.2299 441.596 63.2622 443.645 65.3269C445.693 67.3915 446.717 69.9439 446.717 72.984C446.717 76.3493 445.677 78.9992 443.596 80.9338C441.515 82.8522 439.003 83.8113 436.061 83.8113C433.118 83.8113 430.606 82.8359 428.525 80.885C426.461 78.9179 425.428 76.2842 425.428 72.984ZM429.477 73.106C429.477 76.65 430.054 79.1374 431.208 80.568C432.362 81.9824 433.98 82.6896 436.061 82.6896C438.19 82.6896 439.816 81.9824 440.938 80.568C442.076 79.1374 442.645 76.65 442.645 73.106C442.645 69.5944 442.084 67.0908 440.962 65.5951C439.841 64.0994 438.207 63.3516 436.061 63.3516C433.931 63.3516 432.297 64.0994 431.159 65.5951C430.037 67.0745 429.477 69.5781 429.477 73.106Z" fill="#0A414A"/>
<path d="M455.423 62.2299H456.081C456.455 63.2378 456.667 64.6116 456.716 66.3511C457.886 64.9692 459.113 63.9369 460.398 63.2541C461.682 62.5713 463.023 62.2299 464.421 62.2299C466.015 62.2299 467.315 62.5631 468.323 63.2297C469.347 63.8962 470.006 64.7172 470.298 65.6927C470.591 66.6518 470.737 68.0581 470.737 69.9114V76.1542C470.737 78.4627 470.778 79.869 470.859 80.3729C470.941 80.8769 471.193 81.259 471.615 81.5191C472.054 81.7629 472.851 81.8849 474.005 81.8849V83.0066H463.787V81.8849H464.251C465.421 81.8849 466.185 81.7142 466.543 81.3727C466.901 81.0313 467.104 80.633 467.153 80.1778C467.201 79.7226 467.226 78.3814 467.226 76.1542V69.7163C467.226 68.1394 467.145 67.0176 466.982 66.3511C466.836 65.6683 466.421 65.0668 465.738 64.5465C465.072 64.0263 464.218 63.7662 463.178 63.7662C461.991 63.7662 460.853 64.1238 459.764 64.8392C458.691 65.5382 457.675 66.5949 456.716 68.0093V76.1542C456.716 78.4627 456.756 79.869 456.837 80.3729C456.935 80.8769 457.195 81.259 457.618 81.5191C458.057 81.7629 458.861 81.8849 460.032 81.8849V83.0066H449.936V81.8849C451.058 81.8849 451.838 81.7711 452.277 81.5434C452.716 81.3158 452.984 80.9744 453.082 80.5192C453.196 80.0478 453.253 78.5928 453.253 76.1542V70.204C453.253 67.8793 453.204 66.473 453.106 65.9853C453.025 65.4813 452.765 65.1074 452.326 64.8635C451.903 64.6034 451.107 64.4734 449.936 64.4734V63.3516C451.725 63.1565 453.553 62.7826 455.423 62.2299Z" fill="#0A414A"/>
<path d="M497.074 79.3487H497.976C497.83 82.1287 496.464 83.5187 493.88 83.5187C492.774 83.5187 491.896 83.2261 491.246 82.6408C490.612 82.0556 490.197 81.1858 490.002 80.0315C488.376 81.1858 486.889 82.0556 485.54 82.6408C484.206 83.2261 483.012 83.5187 481.955 83.5187C480.606 83.5187 479.443 83.1285 478.468 82.3482C477.492 81.5678 477.005 80.5355 477.005 79.2512C477.005 77.5767 477.817 76.1135 479.443 74.8617C481.085 73.6099 483.345 72.3906 486.222 71.2039L490.002 69.6675V68.6921C490.002 67.3102 489.913 66.3104 489.734 65.6927C489.555 65.0749 489.092 64.5221 488.344 64.0344C487.596 63.5467 486.613 63.3028 485.393 63.3028C482.955 63.3028 481.597 64.1157 481.321 65.7414C481.061 67.3997 480.378 68.2288 479.272 68.2288C478.281 68.2288 477.785 67.7573 477.785 66.8144C477.785 65.8877 478.443 64.8961 479.76 63.8393C481.077 62.7664 483.125 62.2299 485.905 62.2299C487.97 62.2299 489.571 62.555 490.709 63.2053C491.847 63.8556 492.595 64.5953 492.953 65.4244C493.327 66.2535 493.514 67.5216 493.514 69.2286V77.3003C493.514 79.1862 493.611 80.3973 493.806 80.9338C494.001 81.4703 494.424 81.7385 495.074 81.7385C496.147 81.7385 496.814 80.9419 497.074 79.3487ZM490.002 70.8137L487.344 71.8867C483.15 73.5937 481.053 75.7396 481.053 78.3245C481.053 79.3487 481.321 80.1778 481.857 80.8119C482.394 81.4297 483.093 81.7385 483.954 81.7385C484.719 81.7385 485.605 81.4866 486.613 80.9826C487.621 80.4786 488.75 79.7226 490.002 78.7147V70.8137Z" fill="#0A414A"/>
<path d="M506.146 49.4761V76.1542C506.146 78.2839 506.17 79.6251 506.219 80.1778C506.284 80.7306 506.52 81.1533 506.926 81.4459C507.332 81.7385 508.056 81.8849 509.096 81.8849H509.682V83.0066H499.001V81.8849H499.683C500.659 81.8849 501.35 81.7548 501.756 81.4947C502.179 81.2183 502.431 80.8363 502.512 80.3485C502.593 79.8608 502.634 78.4627 502.634 76.1542V56.4017C502.634 54.3045 502.447 52.9876 502.073 52.4511C501.699 51.8984 500.789 51.622 499.342 51.622V50.5003C500.334 50.5003 501.496 50.3865 502.829 50.1589C504.178 49.9313 505.105 49.7037 505.609 49.4761H506.146Z" fill="#0A414A"/>
<path d="M290.088 105.612H288.966L289.137 97.6619H321.228L321.399 105.612H320.35C319.976 103.433 319.464 101.864 318.814 100.905C318.164 99.9298 317.465 99.3364 316.717 99.1251C315.969 98.8975 314.693 98.7837 312.888 98.7837H307.572V122.121C307.572 124.706 307.629 126.405 307.743 127.218C307.873 128.03 308.206 128.632 308.743 129.022C309.279 129.412 310.287 129.607 311.767 129.607H313.376V130.729H296.891V129.607H298.598C300.013 129.607 300.988 129.429 301.525 129.071C302.077 128.713 302.427 128.16 302.573 127.413C302.736 126.649 302.817 124.885 302.817 122.121V98.7837H297.915C295.786 98.7837 294.355 98.8894 293.624 99.1007C292.892 99.2958 292.201 99.9054 291.551 100.93C290.917 101.954 290.429 103.515 290.088 105.612Z" fill="#0A414A"/>
<path d="M331.202 114.049C332.178 112.684 333.267 111.659 334.47 110.977C335.689 110.294 337.022 109.952 338.469 109.952C340.111 109.952 341.469 110.294 342.542 110.977C343.631 111.659 344.338 112.505 344.663 113.513C344.988 114.504 345.151 116.122 345.151 118.366V123.877C345.151 126.218 345.191 127.64 345.273 128.144C345.37 128.648 345.639 129.022 346.077 129.266C346.516 129.494 347.329 129.607 348.516 129.607V130.729H338.201V129.607H338.664C339.851 129.607 340.615 129.437 340.956 129.095C341.314 128.754 341.517 128.356 341.566 127.9C341.631 127.429 341.664 126.088 341.664 123.877V117.878C341.664 116.22 341.566 114.992 341.371 114.196C341.176 113.399 340.713 112.741 339.981 112.22C339.266 111.7 338.363 111.44 337.274 111.44C336.006 111.44 334.868 111.814 333.86 112.562C332.852 113.293 331.966 114.399 331.202 115.878V123.877C331.202 126.12 331.235 127.502 331.3 128.022C331.381 128.543 331.633 128.941 332.056 129.217C332.478 129.477 333.251 129.607 334.372 129.607V130.729H324.228V129.607H324.74C325.91 129.607 326.666 129.445 327.008 129.12C327.365 128.778 327.569 128.38 327.617 127.925C327.682 127.453 327.715 126.104 327.715 123.877V103.978C327.715 101.962 327.52 100.686 327.13 100.149C326.756 99.6128 325.845 99.3446 324.398 99.3446V98.2228C326.918 98.2228 329.015 97.8814 330.69 97.1986H331.202V114.049Z" fill="#0A414A"/>
<path d="M369.537 117.512H355.612C355.547 118.471 355.515 119.187 355.515 119.658C355.515 123.17 356.059 125.811 357.149 127.583C358.254 129.339 359.896 130.217 362.075 130.217C365.033 130.217 367.131 128.892 368.366 126.242H369.537C369.016 127.9 367.984 129.201 366.44 130.144C364.895 131.071 363.213 131.534 361.392 131.534C359.701 131.534 358.1 131.111 356.588 130.266C355.092 129.404 353.865 128.193 352.905 126.632C351.946 125.072 351.467 123.178 351.467 120.95C351.467 117.797 352.393 115.179 354.247 113.098C356.1 111.001 358.417 109.952 361.197 109.952C363.814 109.952 365.838 110.749 367.269 112.342C368.699 113.935 369.455 115.659 369.537 117.512ZM365.269 116.537C365.318 116.163 365.342 115.829 365.342 115.537C365.342 114.106 364.92 113.001 364.074 112.22C363.245 111.424 362.221 111.025 361.002 111.025C358.043 111.025 356.279 112.862 355.71 116.537H365.269Z" fill="#0A414A"/>
<path d="M379.754 115.049C380.307 113.602 381.201 112.391 382.437 111.416C383.689 110.44 384.908 109.952 386.095 109.952C387.168 109.952 388.013 110.286 388.631 110.952C389.249 111.619 389.557 112.302 389.557 113.001C389.557 113.472 389.395 113.879 389.07 114.22C388.761 114.561 388.379 114.732 387.924 114.732C387.111 114.732 386.493 114.131 386.07 112.927C385.778 112.115 385.339 111.708 384.753 111.708C384.054 111.708 383.217 112.188 382.242 113.147C381.266 114.09 380.64 115.073 380.364 116.098C380.088 117.122 379.949 118.528 379.949 120.316V123.877C379.949 126.006 379.974 127.348 380.023 127.9C380.088 128.453 380.323 128.876 380.73 129.168C381.136 129.461 381.86 129.607 382.9 129.607H383.583V130.729H372.975V129.607H373.487C374.463 129.607 375.153 129.477 375.56 129.217C375.983 128.941 376.235 128.559 376.316 128.071C376.397 127.583 376.438 126.185 376.438 123.877V118.244C376.438 116.098 376.405 114.756 376.34 114.22C376.292 113.667 376.064 113.244 375.657 112.952C375.251 112.643 374.528 112.489 373.487 112.489H372.975V111.391C374.503 111.212 376.503 110.733 378.974 109.952C379.445 111.237 379.706 112.936 379.754 115.049Z" fill="#0A414A"/>
<path d="M411.675 127.071H412.578C412.431 129.851 411.066 131.241 408.481 131.241C407.375 131.241 406.497 130.949 405.847 130.363C405.213 129.778 404.799 128.908 404.603 127.754C402.978 128.908 401.49 129.778 400.141 130.363C398.808 130.949 397.613 131.241 396.556 131.241C395.207 131.241 394.044 130.851 393.069 130.071C392.094 129.29 391.606 128.258 391.606 126.974C391.606 125.299 392.419 123.836 394.044 122.584C395.686 121.332 397.946 120.113 400.824 118.926L404.603 117.39V116.415C404.603 115.033 404.514 114.033 404.335 113.415C404.156 112.797 403.693 112.245 402.945 111.757C402.197 111.269 401.214 111.025 399.995 111.025C397.556 111.025 396.198 111.838 395.922 113.464C395.662 115.122 394.979 115.951 393.874 115.951C392.882 115.951 392.386 115.48 392.386 114.537C392.386 113.61 393.045 112.619 394.361 111.562C395.678 110.489 397.727 109.952 400.507 109.952C402.571 109.952 404.173 110.278 405.311 110.928C406.449 111.578 407.196 112.318 407.554 113.147C407.928 113.976 408.115 115.244 408.115 116.951V125.023C408.115 126.909 408.213 128.12 408.408 128.656C408.603 129.193 409.025 129.461 409.676 129.461C410.749 129.461 411.415 128.664 411.675 127.071ZM404.603 118.536L401.945 119.609C397.751 121.316 395.654 123.462 395.654 126.047C395.654 127.071 395.922 127.9 396.459 128.534C396.995 129.152 397.694 129.461 398.556 129.461C399.32 129.461 400.206 129.209 401.214 128.705C402.222 128.201 403.352 127.445 404.603 126.437V118.536Z" fill="#0A414A"/>
<path d="M419.259 109.952H419.918C420.194 110.863 420.332 111.96 420.332 113.244C421.373 112.139 422.486 111.318 423.673 110.782C424.876 110.229 426.144 109.952 427.477 109.952C430.241 109.952 432.542 110.928 434.379 112.879C436.216 114.813 437.134 117.374 437.134 120.56C437.134 123.682 436.208 126.291 434.354 128.388C432.517 130.485 430.095 131.534 427.087 131.534C425.852 131.534 424.665 131.282 423.527 130.778C422.405 130.29 421.34 129.559 420.332 128.583V136.167C420.332 138.476 420.373 139.882 420.454 140.386C420.552 140.89 420.812 141.264 421.235 141.508C421.657 141.768 422.446 141.898 423.6 141.898V143.02H413.163V141.898H413.894C415.049 141.898 415.797 141.727 416.138 141.386C416.496 141.061 416.699 140.662 416.748 140.191C416.813 139.736 416.845 138.394 416.845 136.167V118.024C416.845 115.894 416.813 114.553 416.748 114C416.699 113.448 416.471 113.025 416.065 112.732C415.658 112.44 414.935 112.293 413.894 112.293H413.163V111.172C414.772 111.009 416.805 110.603 419.259 109.952ZM420.332 126.974C421.21 128.047 422.137 128.86 423.112 129.412C424.104 129.949 425.144 130.217 426.234 130.217C428.071 130.217 429.672 129.429 431.038 127.852C432.403 126.275 433.086 123.763 433.086 120.316C433.086 117.325 432.428 115.09 431.111 113.61C429.794 112.131 428.225 111.391 426.404 111.391C425.283 111.391 424.218 111.676 423.21 112.245C422.202 112.814 421.243 113.675 420.332 114.83V126.974Z" fill="#0A414A"/>
<path d="M450.668 126.949L455.302 115.854C455.968 114.228 456.301 113.326 456.301 113.147C456.301 112.334 455.399 111.911 453.595 111.879V110.757H460.618V111.879C459.529 111.928 458.732 112.22 458.228 112.757C457.724 113.277 457.098 114.439 456.35 116.244L447.449 137.728C446.604 139.776 445.856 141.166 445.206 141.898C444.556 142.646 443.84 143.02 443.06 143.02C442.003 143.02 441.475 142.54 441.475 141.581C441.475 140.475 442.32 139.541 444.011 138.776C445.003 138.338 445.661 137.964 445.986 137.655C446.328 137.346 446.661 136.785 446.986 135.972L448.888 131.217L441.377 115.122C440.711 113.708 440.158 112.814 439.719 112.44C439.28 112.066 438.532 111.879 437.476 111.879V110.757H446.645V111.879C445.035 111.928 444.23 112.261 444.23 112.879C444.23 113.123 444.547 113.919 445.182 115.269L450.668 126.949Z" fill="#0A414A"/>
<path d="M309.254 166.259H296.696L295.842 168.356C294.574 171.396 293.94 173.379 293.94 174.306C293.94 175.298 294.273 176.054 294.94 176.574C295.623 177.078 296.492 177.33 297.549 177.33V178.452H287.722V177.33C289.185 177.102 290.274 176.59 290.989 175.794C291.705 174.981 292.566 173.282 293.574 170.697C293.656 170.453 294.046 169.51 294.745 167.868L304.353 144.921H305.304L316.351 171.185L317.863 174.647C318.204 175.428 318.659 176.046 319.228 176.501C319.813 176.94 320.683 177.216 321.837 177.33V178.452H308.84V177.33C310.433 177.33 311.506 177.216 312.059 176.989C312.628 176.745 312.912 176.273 312.912 175.574C312.912 175.216 312.538 174.152 311.791 172.38L309.254 166.259ZM308.84 165.161L302.987 151.066L297.159 165.161H308.84Z" fill="#0A414A"/>
<path d="M323.569 179.086V172.526H324.52C325.625 176.314 327.601 178.208 330.446 178.208C331.681 178.208 332.6 177.834 333.201 177.086C333.819 176.338 334.128 175.517 334.128 174.623C334.128 173.583 333.803 172.729 333.152 172.063C332.486 171.396 331.193 170.591 329.275 169.648C327.259 168.657 325.812 167.681 324.934 166.722C324.057 165.779 323.618 164.617 323.618 163.235C323.618 161.918 324.089 160.666 325.032 159.479C325.975 158.276 327.3 157.675 329.007 157.675C330.746 157.675 332.185 158.382 333.323 159.797C333.567 159.553 333.884 158.959 334.274 158.016H335.177V164.186H334.274C333.949 162.707 333.315 161.438 332.372 160.382C331.445 159.309 330.348 158.772 329.08 158.772C328.105 158.772 327.316 159.073 326.715 159.675C326.113 160.276 325.812 160.975 325.812 161.772C325.812 162.65 326.146 163.406 326.812 164.04C327.462 164.69 328.706 165.43 330.543 166.259C333.307 167.511 334.998 168.73 335.615 169.917C336.233 171.12 336.542 172.274 336.542 173.379C336.542 175.119 335.965 176.533 334.811 177.623C333.673 178.712 332.234 179.256 330.494 179.256C328.657 179.256 327.024 178.5 325.593 176.989C325.154 177.476 324.796 178.175 324.52 179.086H323.569Z" fill="#0A414A"/>
<path d="M340.249 179.086V172.526H341.2C342.305 176.314 344.281 178.208 347.126 178.208C348.361 178.208 349.28 177.834 349.881 177.086C350.499 176.338 350.808 175.517 350.808 174.623C350.808 173.583 350.483 172.729 349.832 172.063C349.166 171.396 347.873 170.591 345.955 169.648C343.939 168.657 342.492 167.681 341.614 166.722C340.736 165.779 340.298 164.617 340.298 163.235C340.298 161.918 340.769 160.666 341.712 159.479C342.655 158.276 343.98 157.675 345.687 157.675C347.426 157.675 348.865 158.382 350.003 159.797C350.247 159.553 350.564 158.959 350.954 158.016H351.856V164.186H350.954C350.629 162.707 349.995 161.438 349.052 160.382C348.125 159.309 347.028 158.772 345.76 158.772C344.785 158.772 343.996 159.073 343.395 159.675C342.793 160.276 342.492 160.975 342.492 161.772C342.492 162.65 342.826 163.406 343.492 164.04C344.142 164.69 345.386 165.43 347.223 166.259C349.987 167.511 351.678 168.73 352.295 169.917C352.913 171.12 353.222 172.274 353.222 173.379C353.222 175.119 352.645 176.533 351.491 177.623C350.353 178.712 348.914 179.256 347.174 179.256C345.337 179.256 343.703 178.5 342.273 176.989C341.834 177.476 341.476 178.175 341.2 179.086H340.249Z" fill="#0A414A"/>
<path d="M356.758 168.429C356.758 165.373 357.782 162.82 359.831 160.772C361.879 158.707 364.399 157.675 367.39 157.675C370.398 157.675 372.926 158.707 374.974 160.772C377.023 162.837 378.047 165.389 378.047 168.429C378.047 171.794 377.006 174.444 374.925 176.379C372.845 178.297 370.333 179.256 367.39 179.256C364.448 179.256 361.936 178.281 359.855 176.33C357.79 174.363 356.758 171.729 356.758 168.429ZM360.806 168.551C360.806 172.095 361.383 174.582 362.537 176.013C363.692 177.427 365.309 178.135 367.39 178.135C369.52 178.135 371.146 177.427 372.267 176.013C373.405 174.582 373.974 172.095 373.974 168.551C373.974 165.039 373.414 162.536 372.292 161.04C371.17 159.545 369.536 158.797 367.39 158.797C365.261 158.797 363.627 159.545 362.489 161.04C361.367 162.52 360.806 165.023 360.806 168.551Z" fill="#0A414A"/>
<path d="M398.97 173.575H400.043C398.937 177.362 396.174 179.256 391.752 179.256C388.907 179.256 386.509 178.289 384.558 176.354C382.623 174.42 381.656 171.859 381.656 168.673C381.656 165.405 382.705 162.755 384.802 160.723C386.899 158.691 389.378 157.675 392.239 157.675C393.963 157.675 395.548 158.057 396.995 158.821C398.442 159.569 399.165 160.487 399.165 161.577C399.165 161.983 399.027 162.365 398.75 162.723C398.49 163.08 398.108 163.259 397.604 163.259C396.531 163.259 395.873 162.633 395.629 161.382C395.434 160.439 395.133 159.78 394.727 159.406C394.304 159.032 393.483 158.845 392.264 158.845C390.085 158.845 388.443 159.601 387.338 161.113C386.249 162.625 385.704 164.901 385.704 167.941C385.704 171.079 386.289 173.534 387.46 175.306C388.647 177.078 390.435 177.964 392.825 177.964C396.044 177.964 398.092 176.501 398.97 173.575Z" fill="#0A414A"/>
<path d="M404.579 147.482C404.579 146.783 404.822 146.181 405.31 145.677C405.814 145.173 406.416 144.921 407.115 144.921C407.814 144.921 408.407 145.173 408.895 145.677C409.383 146.181 409.626 146.783 409.626 147.482C409.626 148.197 409.383 148.807 408.895 149.311C408.407 149.815 407.814 150.067 407.115 150.067C406.416 150.067 405.814 149.815 405.31 149.311C404.822 148.807 404.579 148.197 404.579 147.482ZM409.285 157.675V171.599C409.285 173.729 409.318 175.07 409.383 175.623C409.448 176.176 409.683 176.598 410.09 176.891C410.496 177.184 411.22 177.33 412.26 177.33H412.772V178.452H402.018V177.33H402.847C404.001 177.33 404.749 177.167 405.091 176.842C405.448 176.501 405.652 176.103 405.7 175.647C405.765 175.176 405.798 173.826 405.798 171.599V165.552C405.798 163.211 405.684 161.78 405.457 161.26C405.245 160.739 404.953 160.414 404.579 160.284C404.221 160.154 403.587 160.089 402.677 160.089H402.018V158.967C404.912 158.675 407.155 158.244 408.749 157.675H409.285Z" fill="#0A414A"/>
<path d="M435.719 174.794H436.622C436.475 177.574 435.11 178.964 432.525 178.964C431.419 178.964 430.541 178.671 429.891 178.086C429.257 177.501 428.843 176.631 428.647 175.477C427.022 176.631 425.534 177.501 424.185 178.086C422.852 178.671 421.657 178.964 420.6 178.964C419.251 178.964 418.088 178.574 417.113 177.793C416.137 177.013 415.65 175.981 415.65 174.696C415.65 173.022 416.463 171.559 418.088 170.307C419.73 169.055 421.99 167.836 424.868 166.649L428.647 165.113V164.137C428.647 162.755 428.558 161.755 428.379 161.138C428.2 160.52 427.737 159.967 426.989 159.479C426.241 158.992 425.258 158.748 424.039 158.748C421.6 158.748 420.242 159.561 419.966 161.186C419.706 162.845 419.023 163.674 417.918 163.674C416.926 163.674 416.43 163.202 416.43 162.259C416.43 161.333 417.089 160.341 418.405 159.284C419.722 158.211 421.771 157.675 424.551 157.675C426.615 157.675 428.217 158 429.355 158.65C430.493 159.301 431.24 160.04 431.598 160.869C431.972 161.699 432.159 162.967 432.159 164.674V172.745C432.159 174.631 432.257 175.842 432.452 176.379C432.647 176.915 433.069 177.184 433.72 177.184C434.793 177.184 435.459 176.387 435.719 174.794ZM428.647 166.259L425.989 167.332C421.795 169.039 419.698 171.185 419.698 173.77C419.698 174.794 419.966 175.623 420.503 176.257C421.039 176.875 421.738 177.184 422.6 177.184C423.364 177.184 424.25 176.932 425.258 176.428C426.266 175.924 427.396 175.168 428.647 174.16V166.259Z" fill="#0A414A"/>
<path d="M450.351 159.601H444.328V171.672C444.328 173.526 444.409 174.778 444.571 175.428C444.734 176.062 445.075 176.574 445.596 176.964C446.132 177.354 446.701 177.549 447.303 177.549C448.473 177.549 449.489 176.883 450.351 175.55L451.131 176.013C450.627 177.086 449.879 177.899 448.888 178.452C447.912 178.988 446.921 179.256 445.913 179.256C444.742 179.256 443.71 178.915 442.816 178.232C441.938 177.533 441.385 176.72 441.157 175.794C440.946 174.867 440.84 173.241 440.84 170.916V159.601H437.938V158.48C439.272 158.447 440.466 157.886 441.523 156.797C442.58 155.708 443.255 154.18 443.547 152.213H444.328V158.48H450.351V159.601Z" fill="#0A414A"/>
<path d="M454.57 147.482C454.57 146.783 454.813 146.181 455.301 145.677C455.805 145.173 456.407 144.921 457.106 144.921C457.805 144.921 458.398 145.173 458.886 145.677C459.374 146.181 459.617 146.783 459.617 147.482C459.617 148.197 459.374 148.807 458.886 149.311C458.398 149.815 457.805 150.067 457.106 150.067C456.407 150.067 455.805 149.815 455.301 149.311C454.813 148.807 454.57 148.197 454.57 147.482ZM459.276 157.675V171.599C459.276 173.729 459.309 175.07 459.374 175.623C459.439 176.176 459.674 176.598 460.081 176.891C460.487 177.184 461.211 177.33 462.251 177.33H462.763V178.452H452.009V177.33H452.838C453.992 177.33 454.74 177.167 455.082 176.842C455.439 176.501 455.643 176.103 455.691 175.647C455.756 175.176 455.789 173.826 455.789 171.599V165.552C455.789 163.211 455.675 161.78 455.447 161.26C455.236 160.739 454.943 160.414 454.57 160.284C454.212 160.154 453.578 160.089 452.667 160.089H452.009V158.967C454.903 158.675 457.146 158.244 458.74 157.675H459.276Z" fill="#0A414A"/>
<path d="M465.568 168.429C465.568 165.373 466.592 162.82 468.64 160.772C470.689 158.707 473.208 157.675 476.2 157.675C479.207 157.675 481.735 158.707 483.784 160.772C485.832 162.837 486.856 165.389 486.856 168.429C486.856 171.794 485.816 174.444 483.735 176.379C481.654 178.297 479.142 179.256 476.2 179.256C473.257 179.256 470.746 178.281 468.665 176.33C466.6 174.363 465.568 171.729 465.568 168.429ZM469.616 168.551C469.616 172.095 470.193 174.582 471.347 176.013C472.501 177.427 474.119 178.135 476.2 178.135C478.33 178.135 479.955 177.427 481.077 176.013C482.215 174.582 482.784 172.095 482.784 168.551C482.784 165.039 482.223 162.536 481.101 161.04C479.98 159.545 478.346 158.797 476.2 158.797C474.07 158.797 472.436 159.545 471.298 161.04C470.177 162.52 469.616 165.023 469.616 168.551Z" fill="#0A414A"/>
<path d="M495.562 157.675H496.221C496.594 158.683 496.806 160.057 496.855 161.796C498.025 160.414 499.253 159.382 500.537 158.699C501.821 158.016 503.162 157.675 504.561 157.675C506.154 157.675 507.454 158.008 508.462 158.675C509.486 159.341 510.145 160.162 510.438 161.138C510.73 162.097 510.876 163.503 510.876 165.356V171.599C510.876 173.908 510.917 175.314 510.998 175.818C511.08 176.322 511.332 176.704 511.754 176.964C512.193 177.208 512.99 177.33 514.144 177.33V178.452H503.927V177.33H504.39C505.56 177.33 506.324 177.159 506.682 176.818C507.04 176.476 507.243 176.078 507.292 175.623C507.341 175.168 507.365 173.826 507.365 171.599V165.161C507.365 163.584 507.284 162.463 507.121 161.796C506.975 161.113 506.56 160.512 505.877 159.992C505.211 159.471 504.357 159.211 503.317 159.211C502.13 159.211 500.992 159.569 499.903 160.284C498.83 160.983 497.814 162.04 496.855 163.454V171.599C496.855 173.908 496.895 175.314 496.977 175.818C497.074 176.322 497.334 176.704 497.757 176.964C498.196 177.208 499.001 177.33 500.171 177.33V178.452H490.075V177.33C491.197 177.33 491.977 177.216 492.416 176.989C492.855 176.761 493.124 176.42 493.221 175.964C493.335 175.493 493.392 174.038 493.392 171.599V165.649C493.392 163.324 493.343 161.918 493.246 161.43C493.164 160.926 492.904 160.552 492.465 160.309C492.042 160.048 491.246 159.918 490.075 159.918V158.797C491.864 158.602 493.693 158.228 495.562 157.675Z" fill="#0A414A"/>
<path d="M268.83 54.6262V183.963" stroke="#0A414A" stroke-width="1.38728" stroke-miterlimit="10"/>
</svg>
